<svg width="20" height="20" viewBox="0 0 20 20" fill="none" xmlns="http://www.w3.org/2000/svg">
<path d="M12.4917 9.66693L18.6251 3.53362C19.3984 2.76029 19.3984 1.48029 18.6251 0.706953C17.8517 -0.0663802 16.5717 -0.0663802 15.7984 0.706953L9.66505 6.84026L3.53164 0.706953C2.75831 -0.0663802 1.47831 -0.0663802 0.705 0.706953C-0.0683333 1.48029 -0.0683333 2.76029 0.705 3.53362L6.83838 9.66693L0.705 15.8003C-0.0683333 16.5736 -0.0683333 17.8536 0.705 18.6269C1.105 19.0269 1.61164 19.2136 2.1183 19.2136C2.62497 19.2136 3.13164 19.0269 3.53164 18.6269L9.66505 12.4936L15.7984 18.6269C16.1984 19.0269 16.7051 19.2136 17.2117 19.2136C17.7184 19.2136 18.2251 19.0269 18.6251 18.6269C19.3984 17.8536 19.3984 16.5736 18.6251 15.8003L12.4917 9.66693Z" fill="#F02E2E"/>
</svg>
