<svg width="37" height="33" viewBox="0 0 37 33" fill="none" xmlns="http://www.w3.org/2000/svg">
<path d="M18.7206 17.8752C23.1044 17.8752 26.6582 14.3214 26.6582 9.9376C26.6582 5.55377 23.1044 2 18.7206 2C14.3368 2 10.783 5.55377 10.783 9.9376C10.783 14.3214 14.3368 17.8752 18.7206 17.8752Z" stroke="#A19191" stroke-width="2.5" stroke-miterlimit="10" stroke-linecap="round" stroke-linejoin="round"/>
<path d="M13.4054 15.7984C13.3878 15.7984 13.3878 15.7984 13.3702 15.816" stroke="#A19191" stroke-width="2.5" stroke-miterlimit="10" stroke-linecap="round" stroke-linejoin="round"/>
<path d="M27.4678 17.4C32.0262 20.1808 35.1238 25.0912 35.4406 30.7408C35.4582 31.2512 35.0534 31.6736 34.543 31.6736H2.89815C2.38775 31.6736 1.98295 31.2512 2.00055 30.7408C2.31735 25.1264 5.39735 20.2336 9.90295 17.4528" stroke="#A19191" stroke-width="2.5" stroke-miterlimit="10" stroke-linecap="round" stroke-linejoin="round"/>
</svg>
