<svg width="34" height="33" viewBox="0 0 34 33" fill="none" xmlns="http://www.w3.org/2000/svg">
<path d="M2 22.3C2 18.1988 2 16.1482 3.31802 14.8741C4.63604 13.6 6.75736 13.6 11 13.6H23C27.2426 13.6 29.3639 13.6 30.6819 14.8741C32 16.1482 32 18.1988 32 22.3C32 26.4012 32 28.4518 30.6819 29.7259C29.3639 31 27.2426 31 23 31H11C6.75736 31 4.63604 31 3.31802 29.7259C2 28.4518 2 26.4012 2 22.3Z" stroke="#A19191" stroke-width="2.5"/>
<path d="M8 13.6V10.7C8 5.89512 12.0294 2 17 2C21.9705 2 26 5.89512 26 10.7V13.6" stroke="#A19191" stroke-width="2.5" stroke-linecap="round"/>
<path d="M11 22.3H11.0135M16.9865 22.3H17M22.9865 22.3H23" stroke="#A19191" stroke-width="2.5" stroke-linecap="round" stroke-linejoin="round"/>
</svg>
