<svg width="33" height="31" viewBox="0 0 33 31" fill="none" xmlns="http://www.w3.org/2000/svg">
<path d="M8.16191 2.07511L7.6655 5.95404H24.6661L24.1697 2.07511C24.1697 0.901909 23.2231 0 22.0499 0H10.2341C9.06093 0 8.15902 0.901909 8.15902 2.07511H8.16191ZM2.07511 8.07244H30.2594C31.4326 8.07244 32.3345 8.97435 32.3345 10.1475V22.5044C32.3345 23.6776 31.4326 24.5795 30.2594 24.5795H26.4266V30.307H5.90786V24.5795H2.07511C0.901908 24.5795 0 23.6776 0 22.5044V10.1475C0 8.97435 0.901908 8.07244 2.07511 8.07244ZM24.3515 28.2304V14.8375H7.98153V28.2304H24.3515ZM21.9171 18.715H10.1923C9.92099 18.715 9.69587 18.4437 9.69587 18.1738V17.5418C9.69587 17.2705 9.92099 17.0453 10.1923 17.0453H21.9171C22.1884 17.0453 22.4582 17.2705 22.4582 17.5418V18.1738C22.4582 18.4451 22.1869 18.715 21.9171 18.715ZM21.9171 22.4582H10.1923C9.92099 22.4582 9.69587 22.1869 9.69587 21.9171V21.285C9.69587 21.0137 9.92099 20.7886 10.1923 20.7886H21.9171C22.1884 20.7886 22.4582 21.0137 22.4582 21.285V21.9171C22.4582 22.1884 22.1869 22.4582 21.9171 22.4582ZM21.9171 26.2001H10.1923C9.92099 26.2001 9.69587 25.9288 9.69587 25.6589V25.0269C9.69587 24.7556 9.92099 24.5305 10.1923 24.5305H21.9171C22.1884 24.5305 22.4582 24.7556 22.4582 25.0269V25.6589C22.4582 25.9302 22.1869 26.2001 21.9171 26.2001Z" fill="black"/>
</svg>
