<svg width="32" height="30" viewBox="0 0 32 30" fill="none" xmlns="http://www.w3.org/2000/svg">
<path fill-rule="evenodd" clip-rule="evenodd" d="M0 24.7826C0 20.2513 2.95255 16.3944 7.07833 14.953C8.19968 14.5612 9.4077 14.3478 10.6667 14.3478C11.9256 14.3478 13.1337 14.5612 14.2549 14.953C14.8642 15.1657 15.4476 15.4313 16 15.7438C16.5524 15.4313 17.1358 15.1657 17.7451 14.953C18.8663 14.5612 20.0743 14.3478 21.3333 14.3478C22.5924 14.3478 23.8004 14.5612 24.9216 14.953C29.0475 16.3944 32 20.2513 32 24.7826V30H22.6667V27.3913H29.3333V24.7826C29.3333 20.4603 25.7516 16.9565 21.3333 16.9565C20.2718 16.9565 19.2587 17.1588 18.3317 17.5261C20.1899 19.404 21.3333 21.9626 21.3333 24.7826V30H0V24.7826ZM10.6667 13.0435C9.44185 13.0435 8.29419 12.7203 7.30788 12.1565C5.32924 11.0254 4 8.92541 4 6.52174C4 2.91988 6.98476 0 10.6667 0C12.8475 0 14.7836 1.02437 16 2.60805C17.2164 1.02437 19.1525 0 21.3333 0C25.0153 0 28 2.91988 28 6.52174C28 8.92541 26.6708 11.0254 24.6921 12.1565C23.7058 12.7203 22.5582 13.0435 21.3333 13.0435C20.1084 13.0435 18.9609 12.7203 17.9746 12.1565C17.2046 11.7163 16.5332 11.1296 16 10.4354C15.4668 11.1297 14.7954 11.7163 14.0254 12.1565C13.0391 12.7203 11.8915 13.0435 10.6667 13.0435ZM18.6667 24.7826V27.3913H2.66667V24.7826C2.66667 20.4603 6.24839 16.9565 10.6667 16.9565C15.085 16.9565 18.6667 20.4603 18.6667 24.7826ZM14.6667 6.52174C14.6667 8.68285 12.8757 10.4348 10.6667 10.4348C8.45753 10.4348 6.66667 8.68285 6.66667 6.52174C6.66667 4.36063 8.45753 2.6087 10.6667 2.6087C12.8757 2.6087 14.6667 4.36063 14.6667 6.52174ZM21.3333 2.6087C19.1243 2.6087 17.3333 4.36063 17.3333 6.52174C17.3333 8.68285 19.1243 10.4348 21.3333 10.4348C23.5424 10.4348 25.3333 8.68285 25.3333 6.52174C25.3333 4.36063 23.5424 2.6087 21.3333 2.6087Z" fill="#080341"/>
</svg>
